# xmcd
# 
# Track frame offsets:
#     150
#     15127
#     32310
#     48800
#     68536
#     85696
#     106280
#     120859
#     138547
#     153656
#     166893
# 
# Disc length: 2387
# 
# Revision: 0
# Processed by: cddbd v1.5.2PL0 Copyright (c) Steve Scherf et al.
# Submitted via: fre:ac v1.0.31
# 
DISCID=6f09510b
DTITLE=Billy Gibbons - The Big Bad Blues
DYEAR=2018
DGENRE=Blues
TTITLE0=Missin' Yo' Kissin"
TTITLE1=My Baby She Rocks
TTITLE2=Second Line
TTITLE3=Standing Around Crying
TTITLE4=Let The Left Hand Know
TTITLE5=Bring It To Jerome
TTITLE6=Thats What She Said
TTITLE7=Mo' Slower Blues
TTITLE8=Hollywood 151
TTITLE9=Rollin' And Tumblin'
TTITLE10=Crackin' Up
EXTD=
EXTT0=
EXTT1=
EXTT2=
EXTT3=
EXTT4=
EXTT5=
EXTT6=
EXTT7=
EXTT8=
EXTT9=
EXTT10=
PLAYORDER=
